<?xml version="1.0" standalone="no"?>
<!DOCTYPE svg PUBLIC "-//W3C//DTD SVG 20010904//EN"
 "http://www.w3.org/TR/2001/REC-SVG-20010904/DTD/svg10.dtd">
<svg version="1.0" xmlns="http://www.w3.org/2000/svg"
 width="1024.000000pt" height="1024.000000pt" viewBox="0 0 1024.000000 1024.000000"
 preserveAspectRatio="xMidYMid meet">
<metadata>
Created by potrace 1.11, written by Peter Selinger 2001-2013
</metadata>
<g transform="translate(0.000000,1024.000000) scale(0.100000,-0.100000)"
fill="#000000" stroke="none">
<path d="M4997 10084 c-6 -6 -55 -9 -274 -17 -24 -1 -43 -4 -43 -7 0 -3 -21
-6 -48 -6 -26 -1 -67 -4 -92 -7 -25 -4 -65 -9 -90 -12 -45 -6 -81 -12 -90 -15
-3 -1 -9 -2 -14 -1 -5 1 -32 -3 -60 -9 -28 -5 -67 -12 -86 -14 -19 -3 -36 -6
-37 -7 -4 -2 -11 -4 -63 -14 -53 -10 -59 -12 -62 -15 -2 -1 -12 -3 -23 -5 -50
-7 -327 -80 -360 -94 -36 -16 -190 -63 -199 -61 -5 1 -12 -2 -15 -7 -3 -4 -39
-19 -78 -33 -40 -13 -73 -29 -73 -34 0 -5 -3 -7 -6 -4 -6 7 -90 -26 -211 -84
-49 -22 -95 -42 -103 -44 -8 -2 -16 -8 -18 -13 -2 -6 -11 -11 -20 -12 -9 0
-48 -18 -87 -39 -38 -22 -101 -55 -138 -75 -97 -51 -355 -214 -454 -287 -17
-13 -41 -30 -53 -38 -34 -23 -178 -135 -220 -170 -10 -8 -37 -31 -61 -50 -23
-19 -57 -49 -76 -67 -18 -17 -33 -29 -33 -26 0 7 -358 -354 -400 -403 -19 -23
-57 -68 -85 -99 -27 -32 -54 -65 -59 -74 -5 -9 -19 -25 -30 -37 -12 -11 -25
-27 -31 -36 -5 -9 -35 -49 -66 -90 -110 -144 -299 -434 -299 -457 0 -6 -4 -11
-9 -11 -5 0 -11 -8 -14 -17 -4 -10 -24 -49 -46 -88 -63 -112 -159 -309 -218
-450 -30 -71 -60 -143 -68 -160 -7 -16 -16 -41 -20 -55 -3 -14 -10 -34 -15
-45 -10 -26 -52 -145 -55 -159 -1 -6 -5 -18 -8 -26 -8 -23 -27 -85 -32 -106
-2 -10 -11 -41 -19 -69 -8 -27 -13 -51 -11 -54 3 -2 0 -10 -6 -18 -6 -7 -8
-13 -4 -13 4 0 2 -7 -5 -15 -7 -8 -10 -15 -7 -15 3 0 -1 -22 -9 -49 -8 -28
-14 -53 -13 -58 1 -4 0 -10 -1 -13 -6 -16 -40 -180 -45 -218 -2 -20 -7 -48
-10 -62 -3 -14 -8 -45 -11 -70 -2 -25 -6 -52 -9 -60 -2 -8 -7 -46 -10 -85 -4
-38 -8 -77 -10 -85 -26 -98 -26 -812 0 -995 3 -22 8 -60 10 -85 4 -48 21 -169
29 -210 3 -14 7 -44 10 -67 2 -23 7 -46 9 -50 3 -5 8 -27 11 -48 9 -70 20
-121 29 -145 3 -8 13 -46 21 -85 9 -38 19 -81 22 -95 4 -14 7 -31 7 -37 0 -7
4 -13 9 -13 4 0 8 -11 8 -25 0 -13 4 -34 9 -47 5 -13 19 -54 31 -93 11 -38 24
-77 27 -85 3 -8 7 -19 9 -25 4 -16 26 -78 35 -100 5 -11 25 -63 45 -115 37
-95 64 -160 90 -214 8 -16 14 -35 14 -43 0 -7 4 -13 8 -13 5 0 15 -18 22 -40
7 -22 18 -40 23 -40 6 0 8 -3 4 -6 -5 -5 31 -79 101 -204 14 -25 34 -62 46
-83 17 -31 90 -150 159 -262 12 -19 21 -31 45 -59 6 -8 12 -20 12 -26 0 -5 4
-10 9 -10 5 0 13 -9 16 -20 3 -11 12 -26 18 -32 7 -7 45 -58 86 -113 41 -55
77 -102 80 -105 4 -3 51 -59 106 -125 159 -190 435 -462 635 -624 25 -20 47
-38 50 -41 3 -3 52 -41 110 -84 58 -43 113 -84 122 -91 9 -7 27 -19 40 -26 13
-6 25 -15 28 -18 3 -4 30 -22 60 -41 30 -19 57 -37 60 -40 11 -14 163 -102
325 -190 44 -24 82 -46 85 -49 3 -3 14 -7 24 -9 10 -2 25 -10 33 -18 8 -8 18
-14 23 -14 4 0 51 -20 103 -45 53 -25 99 -45 102 -45 7 0 92 -38 127 -56 14
-8 31 -14 38 -14 11 0 47 -14 105 -41 11 -6 30 -11 43 -12 12 0 22 -5 22 -9 0
-4 3 -7 8 -6 4 0 14 -2 22 -5 18 -7 243 -76 268 -82 9 -3 79 -20 154 -39 128
-33 267 -63 331 -72 15 -2 39 -6 54 -8 14 -3 47 -8 72 -12 25 -3 57 -8 71 -10
77 -13 221 -26 297 -28 35 0 63 -3 63 -6 0 -3 44 -5 98 -5 53 1 103 -3 110 -8
7 -6 12 -6 12 0 0 5 9 9 20 9 11 0 20 -3 20 -6 0 -7 86 -4 99 4 5 4 12 2 16
-4 4 -6 11 -7 18 -3 6 4 61 8 122 9 60 1 135 5 165 8 30 3 84 9 120 12 135 13
265 30 265 34 0 1 9 3 20 4 84 11 177 27 250 45 22 5 51 12 65 15 43 9 63 13
145 35 75 20 107 29 130 35 34 9 193 58 210 65 11 5 56 21 100 37 44 15 91 32
105 37 14 6 27 11 30 12 3 1 17 7 33 13 37 16 70 29 79 31 7 2 126 57 275 128
29 13 55 28 58 33 3 4 17 11 32 15 16 3 35 12 43 19 8 7 51 32 95 56 44 23 91
50 105 59 14 9 34 21 45 28 124 74 469 315 505 353 3 3 28 23 55 45 28 22 57
46 66 55 10 8 38 33 64 55 54 46 385 373 430 425 151 175 394 490 378 490 -4
0 0 6 9 12 37 30 234 360 333 558 95 191 115 234 115 248 0 6 5 12 12 12 6 0
9 3 5 6 -3 4 1 21 10 38 9 17 18 36 19 41 1 6 26 73 56 150 29 77 64 172 76
210 47 148 67 220 66 232 -1 7 1 13 5 13 4 0 8 6 9 13 0 6 3 23 6 37 3 14 8
34 10 45 2 11 12 49 21 84 9 35 18 76 20 90 2 14 6 36 9 47 2 12 7 37 10 55 3
19 8 45 11 59 2 13 7 40 10 60 3 20 7 45 9 56 2 12 7 45 10 75 4 30 9 70 11
89 6 45 13 112 22 225 10 117 10 614 0 730 -10 115 -13 137 -32 296 -3 20 -12
80 -20 133 -9 53 -13 102 -9 108 4 6 3 8 -3 5 -5 -3 -15 27 -23 71 -7 42 -15
83 -17 90 -2 6 -5 20 -7 30 -3 9 -5 17 -6 17 -1 0 -3 11 -5 25 -2 14 -8 43
-14 65 -7 22 -14 48 -16 59 -2 10 -12 44 -21 75 -10 31 -19 63 -20 72 -12 61
-145 425 -201 549 -27 59 -46 102 -48 110 -5 19 -121 246 -127 248 -5 2 -8 8
-8 13 0 10 -99 190 -109 199 -3 3 -13 19 -21 35 -8 17 -17 32 -20 35 -3 3 -26
38 -50 78 -25 39 -48 72 -52 72 -5 0 -8 5 -8 11 0 9 -84 133 -117 174 -5 6
-31 39 -58 75 -27 36 -54 70 -60 76 -5 7 -21 26 -35 44 -14 17 -36 44 -50 60
-14 15 -45 52 -70 81 -97 115 -431 440 -538 524 -14 11 -42 34 -61 51 -50 42
-210 164 -217 164 -2 0 -10 5 -17 10 -48 40 -66 54 -99 72 -21 12 -38 25 -38
30 0 4 -5 8 -11 8 -6 0 -25 11 -43 25 -18 14 -38 25 -44 25 -7 0 -12 5 -12 10
0 6 -4 10 -10 10 -5 0 -36 17 -67 37 -32 21 -71 45 -88 54 -16 8 -64 34 -105
57 -99 55 -338 171 -415 202 -11 4 -36 15 -55 23 -107 47 -294 113 -460 165
-84 25 -286 79 -325 86 -16 3 -59 13 -95 21 -36 8 -80 17 -99 20 -18 2 -41 6
-50 9 -14 4 -46 9 -138 21 -13 2 -42 6 -65 10 -24 4 -61 9 -83 11 -22 1 -40 3
-40 4 0 1 -22 3 -50 6 -27 2 -79 6 -115 9 -36 3 -110 7 -166 9 -55 1 -106 6
-112 10 -7 4 -12 3 -12 -2 0 -10 -36 -9 -46 1 -4 3 -16 1 -28 -5 -11 -6 -21
-11 -21 -11 0 0 -10 5 -22 12 -13 6 -23 8 -23 3 0 -10 -53 -10 -61 1 -3 4 -8
4 -12 1z m363 -1939 c14 -3 42 -8 63 -10 21 -2 43 -8 49 -11 6 -4 23 -8 37
-10 14 -1 33 -4 41 -6 135 -38 230 -73 337 -125 40 -19 75 -33 78 -31 4 2 11
-5 16 -14 6 -10 14 -18 19 -18 23 0 210 -132 283 -199 139 -127 282 -301 353
-429 21 -37 46 -82 56 -101 30 -53 98 -221 98 -242 0 -10 4 -20 9 -23 5 -3 11
-18 14 -33 3 -16 8 -39 11 -53 16 -66 36 -170 42 -220 3 -25 7 -75 8 -113 2
-37 5 -70 8 -73 3 -3 2 -21 -2 -40 -5 -20 -4 -34 2 -34 5 0 6 -5 2 -12 -4 -7
-9 -33 -10 -58 -6 -112 -12 -169 -19 -180 -4 -6 -4 -17 -1 -25 3 -8 2 -15 -3
-15 -4 0 -8 -6 -8 -12 -2 -23 -15 -93 -20 -100 -2 -5 -6 -17 -9 -28 -10 -47
-14 -59 -39 -129 -15 -41 -35 -89 -46 -107 -10 -19 -16 -34 -14 -34 12 0 -143
-263 -176 -298 -10 -12 -19 -25 -19 -29 0 -5 -8 -16 -17 -25 -10 -9 -31 -33
-48 -53 -41 -51 -147 -155 -157 -155 -5 0 -6 -4 -3 -10 3 -6 -1 -10 -9 -10 -9
0 -16 -4 -16 -8 0 -5 -33 -33 -72 -62 -40 -30 -74 -58 -76 -62 -2 -4 -9 -8
-16 -8 -7 0 -31 -14 -53 -30 -77 -57 -337 -176 -427 -195 -10 -3 -42 -11 -70
-19 -28 -8 -67 -17 -86 -20 -19 -3 -46 -8 -59 -11 -74 -14 -153 -20 -291 -20
-175 0 -251 8 -375 37 -27 7 -54 11 -59 10 -4 -2 -13 2 -20 7 -6 5 -24 11 -41
14 -35 6 -82 23 -145 50 -25 11 -49 20 -55 21 -13 3 -151 71 -195 97 -82 49
-200 134 -258 187 -14 12 -29 22 -33 22 -5 0 -9 7 -9 15 0 8 -4 15 -10 15 -9
0 -25 14 -101 96 -104 112 -221 287 -288 429 -43 92 -81 188 -81 206 0 10 -5
21 -10 24 -6 4 -10 14 -8 23 1 10 -1 23 -5 30 -5 7 -10 22 -13 35 -2 12 -6 33
-9 47 -28 127 -36 186 -39 283 -2 37 -5 70 -8 73 -3 3 -2 21 2 40 5 20 4 34
-2 34 -5 0 -6 5 -2 12 4 7 9 33 10 58 4 84 13 165 23 202 5 20 6 39 3 42 -2 3
1 12 8 21 7 8 10 15 7 15 -3 0 -1 15 4 33 6 17 12 39 14 48 10 45 29 105 37
114 4 5 8 15 8 22 0 22 85 208 106 233 7 8 12 17 12 20 -2 16 148 235 199 290
106 116 193 195 293 268 47 34 90 66 95 70 6 4 24 14 40 22 17 8 32 18 35 21
21 25 346 157 429 174 9 2 36 8 61 14 75 17 102 21 165 27 33 4 61 7 63 9 6 5
367 -4 392 -10z m-1233 -4310 c13 0 23 3 23 8 0 4 5 5 11 2 6 -4 27 -9 47 -11
65 -6 89 -11 100 -18 7 -4 22 -9 33 -11 12 -3 61 -15 108 -29 124 -35 242 -59
351 -72 30 -3 71 -9 90 -13 39 -8 440 -6 480 2 14 3 48 8 76 11 28 3 57 8 65
11 8 3 32 7 54 9 22 2 58 8 80 14 22 6 54 14 70 17 38 8 59 13 63 15 1 2 7 4
12 5 6 1 11 3 13 5 1 1 10 3 20 6 9 2 25 6 35 8 9 3 17 5 17 6 0 1 7 3 15 5 8
2 24 6 35 9 69 18 100 24 106 20 4 -2 10 0 14 6 4 7 12 7 25 0 13 -7 21 -7 25
0 4 6 11 7 17 4 6 -4 49 -8 97 -10 47 -1 106 -5 131 -8 25 -4 65 -9 90 -12
120 -16 382 -91 487 -139 17 -8 34 -15 37 -15 8 0 167 -79 216 -107 85 -49
116 -68 128 -80 7 -7 17 -13 22 -13 5 0 15 -6 22 -12 7 -7 47 -39 89 -70 41
-31 98 -79 126 -105 28 -26 60 -55 70 -64 18 -15 101 -105 156 -167 15 -18 27
-37 27 -43 0 -5 5 -7 10 -4 6 3 10 1 10 -5 0 -10 42 -68 83 -114 9 -11 17 -26
17 -33 0 -7 5 -13 10 -13 6 0 10 -5 10 -11 0 -6 13 -29 29 -52 15 -23 38 -60
49 -83 l21 -40 -37 -45 c-41 -49 -298 -308 -352 -354 -19 -16 -62 -52 -95 -80
-33 -27 -61 -53 -63 -57 -2 -4 -10 -8 -18 -8 -8 0 -14 -3 -14 -7 0 -5 -17 -19
-37 -33 -20 -14 -41 -30 -47 -35 -6 -6 -28 -21 -48 -34 -21 -12 -38 -27 -38
-32 0 -5 -6 -9 -14 -9 -8 0 -21 -6 -28 -13 -7 -7 -31 -24 -53 -37 -22 -13 -42
-26 -45 -29 -7 -9 -42 -30 -65 -40 -11 -5 -36 -20 -55 -32 -20 -13 -63 -37
-95 -54 -33 -16 -62 -33 -63 -38 -2 -4 -8 -5 -13 -1 -5 3 -9 0 -9 -5 0 -6 -4
-11 -10 -11 -5 0 -38 -14 -72 -31 -228 -111 -624 -250 -808 -283 -14 -3 -26
-5 -27 -7 -2 -1 -12 -3 -23 -4 -11 -1 -21 -3 -22 -5 -4 -2 -24 -6 -73 -14 -22
-4 -53 -9 -70 -12 -48 -9 -67 -12 -125 -18 -30 -4 -64 -8 -75 -11 -19 -4 -172
-17 -227 -19 -15 -1 -30 -4 -34 -8 -4 -4 -12 -5 -17 -1 -9 5 -220 7 -237 2 -3
-1 -9 0 -15 1 -5 1 -46 4 -90 5 -107 5 -264 19 -334 30 -69 11 -166 28 -211
37 -25 4 -56 10 -70 12 -14 2 -26 5 -27 6 -2 1 -11 3 -20 4 -10 1 -24 5 -30 9
-7 5 -17 5 -23 2 -5 -3 -10 -2 -10 2 0 5 -10 9 -22 10 -13 0 -54 11 -93 22
-38 12 -79 24 -90 27 -29 7 -38 10 -60 18 -21 8 -47 17 -55 18 -3 1 -43 16
-90 35 -47 18 -88 33 -93 33 -4 0 -46 18 -93 40 -47 22 -92 40 -100 40 -8 0
-14 5 -14 10 0 6 -9 10 -20 10 -11 0 -20 5 -20 10 0 6 -9 10 -20 10 -11 0 -20
5 -20 10 0 6 -8 10 -17 10 -10 0 -29 9 -43 20 -14 11 -33 20 -42 20 -10 0 -18
5 -18 10 0 6 -4 10 -10 10 -23 0 -284 164 -435 274 -75 54 -235 185 -247 201
-4 5 -8 7 -8 2 0 -8 -329 320 -371 371 -36 42 -41 59 -24 76 8 8 15 18 15 22
0 12 113 188 137 213 13 13 23 27 23 31 0 5 15 25 33 45 17 20 30 37 27 38 -9
3 254 263 315 312 33 27 62 51 65 54 12 14 159 111 169 111 6 0 11 3 11 8 0 4
21 18 48 32 26 13 49 27 52 30 5 5 161 83 170 85 3 0 43 16 90 34 81 32 157
59 190 66 8 1 35 8 60 15 25 7 46 12 47 11 2 0 23 6 48 13 33 10 45 11 45 3 0
-8 3 -8 8 -2 8 11 20 15 71 20 20 2 36 5 36 6 0 2 63 8 138 12 37 2 70 7 74
10 3 4 11 4 16 0 6 -4 21 -7 34 -8z"/>
</g>
</svg>
